{
  "accessors": [
    {
      "bufferView": 2,
      "componentType": 5126,
      "count": 14791,
      "max": [
        0.01902100071310997,
        0.01634800061583519,
        0.01438399963080883
      ],
      "min": [
        -0.01902100071310997,
        -0.0007650000043213367,
        -0.017218999564647675
      ],
      "type": "VEC3"
    },
    {
      "bufferView": 2,
      "byteOffset": 177492,
      "componentType": 5126,
      "count": 14791,
      "max": [
        0.9997975826263428,
        0.9999510049819946,
        0.9995996952056885
      ],
      "min": [
        -0.9997987151145935,
        -0.9999867081642151,
        -0.9999866485595703
      ],
      "type": "VEC3"
    },
    {
      "bufferView": 1,
      "componentType": 5126,
      "count": 14791,
      "max": [
        0.9941499829292297,
        0.9966239929199219
      ],
      "min": [
        0.007757000159472227,
        0.007240000180900097
      ],
      "type": "VEC2"
    },
    {
      "bufferView": 0,
      "componentType": 5125,
      "count": 83112,
      "type": "SCALAR"
    },
    {
      "bufferView": 2,
      "byteOffset": 354984,
      "componentType": 5126,
      "count": 2056,
      "max": [
        0.00482300017029047,
        0.016056999564170837,
        0.009972999803721905
      ],
      "min": [
        -0.00482300017029047,
        0.012834999710321426,
        0.006759000010788441
      ],
      "type": "VEC3"
    },
    {
      "bufferView": 2,
      "byteOffset": 379656,
      "componentType": 5126,
      "count": 2056,
      "max": [
        0.99700528383255,
        0.9986366033554077,
        0.9963997602462769
      ],
      "min": [
        -0.99700528383255,
        -0.9986403584480286,
        -0.9964346885681152
      ],
      "type": "VEC3"
    },
    {
      "bufferView": 1,
      "byteOffset": 118328,
      "componentType": 5126,
      "count": 2056,
      "max": [
        0.9974690079689026,
        1.0
      ],
      "min": [
        0.0038399999029934406,
        0.27729299664497375
      ],
      "type": "VEC2"
    },
    {
      "bufferView": 0,
      "byteOffset": 332448,
      "componentType": 5125,
      "count": 11520,
      "type": "SCALAR"
    },
    {
      "bufferView": 2,
      "byteOffset": 404328,
      "componentType": 5126,
      "count": 1576,
      "max": [
        0.0022150001022964716,
        0.012067999690771103,
        0.011516000144183636
      ],
      "min": [
        -0.0022150001022964716,
        0.009844999760389328,
        0.0031590000726282597
      ],
      "type": "VEC3"
    },
    {
      "bufferView": 2,
      "byteOffset": 423240,
      "componentType": 5126,
      "count": 1576,
      "max": [
        0.9950783848762512,
        0.9998711943626404,
        0.9756254553794861
      ],
      "min": [
        -0.9950845837593079,
        -0.9999810457229614,
        -0.9994297623634338
      ],
      "type": "VEC3"
    },
    {
      "bufferView": 1,
      "byteOffset": 134776,
      "componentType": 5126,
      "count": 1576,
      "max": [
        0.7792369723320007,
        0.5338749885559082
      ],
      "min": [
        0.221327006816864,
        0.004984000232070684
      ],
      "type": "VEC2"
    },
    {
      "bufferView": 0,
      "byteOffset": 378528,
      "componentType": 5125,
      "count": 9048,
      "type": "SCALAR"
    }
  ],
  "asset": {
    "extras": {
      "author": "3DModelsFree (https://sketchfab.com/3DModels4Free)",
      "license": "CC-BY-4.0 (http://creativecommons.org/licenses/by/4.0/)",
      "source": "https://sketchfab.com/3d-models/frog-animated-3d-model-503fe19433f247a4972cbd3cc12aa372",
      "title": "Frog Animated - 3D Model"
    },
    "generator": "Sketchfab-16.64.0",
    "version": "2.0"
  },
  "bufferViews": [
    {
      "buffer": 0,
      "byteLength": 414720,
      "name": "floatBufferViews",
      "target": 34963
    },
    {
      "buffer": 0,
      "byteLength": 147384,
      "byteOffset": 414720,
      "byteStride": 8,
      "name": "floatBufferViews",
      "target": 34962
    },
    {
      "buffer": 0,
      "byteLength": 442152,
      "byteOffset": 562104,
      "byteStride": 12,
      "name": "floatBufferViews",
      "target": 34962
    }
  ],
  "buffers": [
    {
      "byteLength": 1004256,
      "uri": "scene.bin"
    }
  ],
  "images": [
    {
      "uri": "textures/Material.001_baseColor.png"
    },
    {
      "uri": "textures/None_baseColor.png"
    }
  ],
  "materials": [
    {
      "doubleSided": true,
      "name": "Material.001",
      "pbrMetallicRoughness": {
        "baseColorTexture": {
          "index": 0
        },
        "metallicFactor": 0.0,
        "roughnessFactor": 0.0
      }
    },
    {
      "doubleSided": true,
      "name": "None",
      "pbrMetallicRoughness": {
        "baseColorTexture": {
          "index": 1
        },
        "metallicFactor": 0.0,
        "roughnessFactor": 0.29583454116442565
      }
    }
  ],
  "meshes": [
    {
      "name": "TreeFrog_Body_Material.001_0",
      "primitives": [
        {
          "attributes": {
            "NORMAL": 1,
            "POSITION": 0,
            "TEXCOORD_0": 2
          },
          "indices": 3,
          "material": 0,
          "mode": 4
        }
      ]
    },
    {
      "name": "TreeFrog_Pupil_None_0",
      "primitives": [
        {
          "attributes": {
            "NORMAL": 5,
            "POSITION": 4,
            "TEXCOORD_0": 6
          },
          "indices": 7,
          "material": 1,
          "mode": 4
        }
      ]
    },
    {
      "name": "TreeFrog_Tongue_None_0",
      "primitives": [
        {
          "attributes": {
            "NORMAL": 9,
            "POSITION": 8,
            "TEXCOORD_0": 10
          },
          "indices": 11,
          "material": 1,
          "mode": 4
        }
      ]
    }
  ],
  "nodes": [
    {
      "children": [
        1
      ],
      "matrix": [
        1.0,
        0.0,
        0.0,
        0.0,
        0.0,
        2.220446049250313e-16,
        -1.0,
        0.0,
        0.0,
        1.0,
        2.220446049250313e-16,
        0.0,
        0.0,
        0.0,
        0.0,
        1.0
      ],
      "name": "Sketchfab_model"
    },
    {
      "children": [
        2
      ],
      "matrix": [
        0.009999999776482582,
        0.0,
        0.0,
        0.0,
        0.0,
        0.0,
        0.009999999776482582,
        0.0,
        0.0,
        -0.009999999776482582,
        0.0,
        0.0,
        0.0,
        0.0,
        0.0,
        1.0
      ],
      "name": "9498c94f7c8b46b3a9529acf28f0c556.fbx"
    },
    {
      "children": [
        3,
        5,
        7
      ],
      "name": "RootNode"
    },
    {
      "children": [
        4
      ],
      "matrix": [
        100.0,
        0.0,
        0.0,
        0.0,
        0.0,
        99.99999999999972,
        -7.5497901264043296e-06,
        0.0,
        0.0,
        7.5497901264043296e-06,
        99.99999999999972,
        0.0,
        0.0,
        0.0,
        0.0,
        1.0
      ],
      "name": "TreeFrog_Body"
    },
    {
      "mesh": 0,
      "name": "TreeFrog_Body_Material.001_0"
    },
    {
      "children": [
        6
      ],
      "matrix": [
        100.0,
        0.0,
        0.0,
        0.0,
        0.0,
        99.99999999999972,
        -7.5497901264043296e-06,
        0.0,
        0.0,
        7.5497901264043296e-06,
        99.99999999999972,
        0.0,
        0.0,
        0.0,
        0.0,
        1.0
      ],
      "name": "TreeFrog_Pupil"
    },
    {
      "mesh": 1,
      "name": "TreeFrog_Pupil_None_0"
    },
    {
      "children": [
        8
      ],
      "matrix": [
        100.0,
        0.0,
        0.0,
        0.0,
        0.0,
        99.99999999999972,
        -7.5497901264043296e-06,
        0.0,
        0.0,
        7.5497901264043296e-06,
        99.99999999999972,
        0.0,
        0.0,
        0.0,
        0.0,
        1.0
      ],
      "name": "TreeFrog_Tongue"
    },
    {
      "mesh": 2,
      "name": "TreeFrog_Tongue_None_0"
    }
  ],
  "samplers": [
    {
      "magFilter": 9729,
      "minFilter": 9987,
      "wrapS": 10497,
      "wrapT": 10497
    }
  ],
  "scene": 0,
  "scenes": [
    {
      "name": "Sketchfab_Scene",
      "nodes": [
        0
      ]
    }
  ],
  "textures": [
    {
      "sampler": 0,
      "source": 0
    },
    {
      "sampler": 0,
      "source": 1
    }
  ]
}
