{
  "accessors": [
    {
      "bufferView": 2,
      "componentType": 5126,
      "count": 21392,
      "max": [
        5.821316242218018,
        11.985138893127441,
        12.30239200592041
      ],
      "min": [
        -5.82086181640625,
        0.0,
        -12.31657886505127
      ],
      "type": "VEC3"
    },
    {
      "bufferView": 2,
      "byteOffset": 256704,
      "componentType": 5126,
      "count": 21392,
      "max": [
        0.9999675154685974,
        0.9999809861183167,
        0.9996883273124695
      ],
      "min": [
        -0.9999673366546631,
        -0.9999998211860657,
        -0.9999807476997375
      ],
      "type": "VEC3"
    },
    {
      "bufferView": 1,
      "componentType": 5126,
      "count": 21392,
      "max": [
        0.9971950054168701,
        0.9994109869003296
      ],
      "min": [
        0.0005879999953322113,
        0.0005890000029467046
      ],
      "type": "VEC2"
    },
    {
      "bufferView": 0,
      "componentType": 5125,
      "count": 109758,
      "type": "SCALAR"
    }
  ],
  "asset": {
    "extras": {
      "author": "Eks.Art (https://sketchfab.com/Eks.Art)",
      "license": "CC-BY-4.0 (http://creativecommons.org/licenses/by/4.0/)",
      "source": "https://sketchfab.com/3d-models/tralalero-tralala-091fffbf2972484f9c35c8a2ec8916f3",
      "title": "Tralalero Tralala"
    },
    "generator": "Sketchfab-16.64.0",
    "version": "2.0"
  },
  "bufferViews": [
    {
      "buffer": 0,
      "byteLength": 439032,
      "name": "floatBufferViews",
      "target": 34963
    },
    {
      "buffer": 0,
      "byteLength": 171136,
      "byteOffset": 439032,
      "byteStride": 8,
      "name": "floatBufferViews",
      "target": 34962
    },
    {
      "buffer": 0,
      "byteLength": 513408,
      "byteOffset": 610168,
      "byteStride": 12,
      "name": "floatBufferViews",
      "target": 34962
    }
  ],
  "buffers": [
    {
      "byteLength": 1123576,
      "uri": "scene.bin"
    }
  ],
  "images": [
    {
      "uri": "textures/Material.001_baseColor.png"
    }
  ],
  "materials": [
    {
      "doubleSided": true,
      "name": "Material.001",
      "pbrMetallicRoughness": {
        "baseColorTexture": {
          "index": 0
        },
        "metallicFactor": 0.0,
        "roughnessFactor": 0.8211145618000169
      }
    }
  ],
  "meshes": [
    {
      "name": "model_Material.001_0",
      "primitives": [
        {
          "attributes": {
            "NORMAL": 1,
            "POSITION": 0,
            "TEXCOORD_0": 2
          },
          "indices": 3,
          "material": 0,
          "mode": 4
        }
      ]
    }
  ],
  "nodes": [
    {
      "children": [
        1
      ],
      "matrix": [
        1.0,
        0.0,
        0.0,
        0.0,
        0.0,
        2.220446049250313e-16,
        -1.0,
        0.0,
        0.0,
        1.0,
        2.220446049250313e-16,
        0.0,
        0.0,
        0.0,
        0.0,
        1.0
      ],
      "name": "Sketchfab_model"
    },
    {
      "children": [
        2
      ],
      "matrix": [
        0.009999999776482582,
        0.0,
        0.0,
        0.0,
        0.0,
        0.0,
        0.009999999776482582,
        0.0,
        0.0,
        -0.009999999776482582,
        0.0,
        0.0,
        0.0,
        0.0,
        0.0,
        1.0
      ],
      "name": "0342b88ca4f241cab3403780af66d09e.fbx"
    },
    {
      "children": [
        3
      ],
      "name": "RootNode"
    },
    {
      "children": [
        4
      ],
      "matrix": [
        99.91859785474874,
        -3.23391850835196e-14,
        4.0342692795552715,
        0.0,
        3.045788728684367e-07,
        99.99999999999972,
        -7.543643859745112e-06,
        0.0,
        -4.034269279555261,
        7.549790703713313e-06,
        99.91859785474847,
        0.0,
        0.0,
        0.0,
        0.0,
        1.0
      ],
      "name": "model"
    },
    {
      "mesh": 0,
      "name": "model_Material.001_0"
    }
  ],
  "samplers": [
    {
      "magFilter": 9729,
      "minFilter": 9987,
      "wrapS": 10497,
      "wrapT": 10497
    }
  ],
  "scene": 0,
  "scenes": [
    {
      "name": "Sketchfab_Scene",
      "nodes": [
        0
      ]
    }
  ],
  "textures": [
    {
      "sampler": 0,
      "source": 0
    }
  ]
}
