{
  "accessors": [
    {
      "bufferView": 2,
      "componentType": 5126,
      "count": 65532,
      "max": [
        19.875303268432617,
        22.610925674438477,
        2.0826187133789063
      ],
      "min": [
        -0.1009359359741211,
        -13.985118865966797,
        -1.0879440307617188
      ],
      "type": "VEC3"
    },
    {
      "bufferView": 2,
      "byteOffset": 786384,
      "componentType": 5126,
      "count": 65532,
      "max": [
        0.9993088841438293,
        0.996322751045227,
        1.0
      ],
      "min": [
        -0.9997462034225464,
        -0.999914824962616,
        -0.9958197474479675
      ],
      "type": "VEC3"
    },
    {
      "bufferView": 1,
      "componentType": 5126,
      "count": 65532,
      "max": [
        0.9996164441108704,
        0.9938963651657104
      ],
      "min": [
        0.000244140625,
        0.004261393565684557
      ],
      "type": "VEC2"
    },
    {
      "bufferView": 0,
      "componentType": 5125,
      "count": 311613,
      "type": "SCALAR"
    },
    {
      "bufferView": 2,
      "byteOffset": 1572768,
      "componentType": 5126,
      "count": 65532,
      "max": [
        19.875303268432617,
        22.610925674438477,
        3.031984329223633
      ],
      "min": [
        -0.7457695007324219,
        -12.928936004638672,
        -1.087946891784668
      ],
      "type": "VEC3"
    },
    {
      "bufferView": 2,
      "byteOffset": 2359152,
      "componentType": 5126,
      "count": 65532,
      "max": [
        0.9998638033866882,
        0.9996942281723022,
        0.999999463558197
      ],
      "min": [
        -0.9999634027481079,
        -0.9999540448188782,
        -1.0
      ],
      "type": "VEC3"
    },
    {
      "bufferView": 1,
      "byteOffset": 524256,
      "componentType": 5126,
      "count": 65532,
      "max": [
        0.9997365474700928,
        0.9875098466873169
      ],
      "min": [
        0.000244140625,
        0.0041526746936142445
      ],
      "type": "VEC2"
    },
    {
      "bufferView": 0,
      "byteOffset": 1246452,
      "componentType": 5125,
      "count": 263229,
      "type": "SCALAR"
    },
    {
      "bufferView": 2,
      "byteOffset": 3145536,
      "componentType": 5126,
      "count": 65532,
      "max": [
        11.452598571777344,
        22.61095428466797,
        2.9812746047973633
      ],
      "min": [
        -6.237784385681152,
        0.03491663932800293,
        -1.0879459381103516
      ],
      "type": "VEC3"
    },
    {
      "bufferView": 2,
      "byteOffset": 3931920,
      "componentType": 5126,
      "count": 65532,
      "max": [
        0.9999216794967651,
        0.9986128211021423,
        0.9999988675117493
      ],
      "min": [
        -0.9989648461341858,
        -0.9986326694488525,
        -1.0
      ],
      "type": "VEC3"
    },
    {
      "bufferView": 1,
      "byteOffset": 1048512,
      "componentType": 5126,
      "count": 65532,
      "max": [
        0.9997170567512512,
        0.8308104276657104
      ],
      "min": [
        0.000244140625,
        0.0024451210629194975
      ],
      "type": "VEC2"
    },
    {
      "bufferView": 0,
      "byteOffset": 2299368,
      "componentType": 5125,
      "count": 298545,
      "type": "SCALAR"
    },
    {
      "bufferView": 2,
      "byteOffset": 4718304,
      "componentType": 5126,
      "count": 65532,
      "max": [
        12.172201156616211,
        22.61095428466797,
        3.031984329223633
      ],
      "min": [
        -8.395068168640137,
        0.08459806442260742,
        -1.087946891784668
      ],
      "type": "VEC3"
    },
    {
      "bufferView": 2,
      "byteOffset": 5504688,
      "componentType": 5126,
      "count": 65532,
      "max": [
        0.9996998906135559,
        0.9994210600852966,
        0.9999998807907104
      ],
      "min": [
        -0.9999135732650757,
        -0.9996783137321472,
        -1.0
      ],
      "type": "VEC3"
    },
    {
      "bufferView": 1,
      "byteOffset": 1572768,
      "componentType": 5126,
      "count": 65532,
      "max": [
        0.9997483491897583,
        0.8298338651657104
      ],
      "min": [
        0.000244140625,
        0.0023812248837202787
      ],
      "type": "VEC2"
    },
    {
      "bufferView": 0,
      "byteOffset": 3493548,
      "componentType": 5125,
      "count": 279153,
      "type": "SCALAR"
    },
    {
      "bufferView": 2,
      "byteOffset": 6291072,
      "componentType": 5126,
      "count": 65533,
      "max": [
        19.875303268432617,
        22.61095428466797,
        2.991330146789551
      ],
      "min": [
        -15.86931037902832,
        -10.004796981811523,
        -1.0879459381103516
      ],
      "type": "VEC3"
    },
    {
      "bufferView": 2,
      "byteOffset": 7077468,
      "componentType": 5126,
      "count": 65533,
      "max": [
        0.9982118606567383,
        0.9995806217193604,
        0.9999998807907104
      ],
      "min": [
        -0.9993507266044617,
        -0.999853789806366,
        -1.0
      ],
      "type": "VEC3"
    },
    {
      "bufferView": 1,
      "byteOffset": 2097024,
      "componentType": 5126,
      "count": 65533,
      "max": [
        0.9995417594909668,
        0.8261310458183289
      ],
      "min": [
        0.000244140625,
        0.0013016058364883065
      ],
      "type": "VEC2"
    },
    {
      "bufferView": 0,
      "byteOffset": 4610160,
      "componentType": 5125,
      "count": 323433,
      "type": "SCALAR"
    },
    {
      "bufferView": 2,
      "byteOffset": 7863864,
      "componentType": 5126,
      "count": 65532,
      "max": [
        5.127208232879639,
        11.776203155517578,
        2.013174057006836
      ],
      "min": [
        -18.34772300720215,
        -17.030616760253906,
        -1.0879449844360352
      ],
      "type": "VEC3"
    },
    {
      "bufferView": 2,
      "byteOffset": 8650248,
      "componentType": 5126,
      "count": 65532,
      "max": [
        0.9992067217826843,
        0.9983665347099304,
        0.999998927116394
      ],
      "min": [
        -0.9985916614532471,
        -0.9999240636825562,
        -1.0
      ],
      "type": "VEC3"
    },
    {
      "bufferView": 1,
      "byteOffset": 2621288,
      "componentType": 5126,
      "count": 65532,
      "max": [
        0.9994692206382751,
        0.6335448026657104
      ],
      "min": [
        0.000244140625,
        0.00025119318161159754
      ],
      "type": "VEC2"
    },
    {
      "bufferView": 0,
      "byteOffset": 5903892,
      "componentType": 5125,
      "count": 303180,
      "type": "SCALAR"
    },
    {
      "bufferView": 2,
      "byteOffset": 9436632,
      "componentType": 5126,
      "count": 65532,
      "max": [
        9.180168151855469,
        3.8156185150146484,
        1.2333478927612305
      ],
      "min": [
        -10.41525936126709,
        -21.93306541442871,
        -1.087946891784668
      ],
      "type": "VEC3"
    },
    {
      "bufferView": 2,
      "byteOffset": 10223016,
      "componentType": 5126,
      "count": 65532,
      "max": [
        0.9999984502792358,
        0.9985804557800293,
        0.9999999403953552
      ],
      "min": [
        -0.9998250007629395,
        -0.9994807243347168,
        -1.0
      ],
      "type": "VEC3"
    },
    {
      "bufferView": 1,
      "byteOffset": 3145544,
      "componentType": 5126,
      "count": 65532,
      "max": [
        0.9996964931488037,
        0.38647451996803284
      ],
      "min": [
        0.000244140625,
        0.0002452327171340585
      ],
      "type": "VEC2"
    },
    {
      "bufferView": 0,
      "byteOffset": 7116612,
      "componentType": 5125,
      "count": 283239,
      "type": "SCALAR"
    },
    {
      "bufferView": 2,
      "byteOffset": 11009400,
      "componentType": 5126,
      "count": 65532,
      "max": [
        -0.55023193359375,
        17.380090713500977,
        2.0027265548706055
      ],
      "min": [
        -20.342039108276367,
        -21.898075103759766,
        -1.087946891784668
      ],
      "type": "VEC3"
    },
    {
      "bufferView": 2,
      "byteOffset": 11795784,
      "componentType": 5126,
      "count": 65532,
      "max": [
        0.9936120510101318,
        0.998961865901947,
        0.9999998211860657
      ],
      "min": [
        -0.9997549057006836,
        -0.9966726303100586,
        -0.9546427726745605
      ],
      "type": "VEC3"
    },
    {
      "bufferView": 1,
      "byteOffset": 3669800,
      "componentType": 5126,
      "count": 65532,
      "max": [
        0.9993255734443665,
        0.22493703663349152
      ],
      "min": [
        0.00027407993911765516,
        0.00024743808899074793
      ],
      "type": "VEC2"
    },
    {
      "bufferView": 0,
      "byteOffset": 8249568,
      "componentType": 5125,
      "count": 315342,
      "type": "SCALAR"
    },
    {
      "bufferView": 2,
      "byteOffset": 12582168,
      "componentType": 5126,
      "count": 65532,
      "max": [
        19.875303268432617,
        22.610925674438477,
        1.991455078125
      ],
      "min": [
        -20.967687606811523,
        -20.80028533935547,
        -1.0879449844360352
      ],
      "type": "VEC3"
    },
    {
      "bufferView": 2,
      "byteOffset": 13368552,
      "componentType": 5126,
      "count": 65532,
      "max": [
        0.9979172348976135,
        0.999477207660675,
        0.9999998211860657
      ],
      "min": [
        -0.9998359084129333,
        -0.9997984170913696,
        -1.0
      ],
      "type": "VEC3"
    },
    {
      "bufferView": 1,
      "byteOffset": 4194056,
      "componentType": 5126,
      "count": 65532,
      "max": [
        0.9996426105499268,
        0.31812915205955505
      ],
      "min": [
        0.000244140625,
        0.0002443386474624276
      ],
      "type": "VEC2"
    },
    {
      "bufferView": 0,
      "byteOffset": 9510936,
      "componentType": 5125,
      "count": 217194,
      "type": "SCALAR"
    },
    {
      "bufferView": 2,
      "byteOffset": 14154936,
      "componentType": 5126,
      "count": 65532,
      "max": [
        6.061707973480225,
        11.455486297607422,
        2.108780860900879
      ],
      "min": [
        -19.63800621032715,
        -18.584400177001953,
        -1.0879449844360352
      ],
      "type": "VEC3"
    },
    {
      "bufferView": 2,
      "byteOffset": 14941320,
      "componentType": 5126,
      "count": 65532,
      "max": [
        0.9984602928161621,
        0.998731791973114,
        0.9999998807907104
      ],
      "min": [
        -0.9996298551559448,
        -0.9995974898338318,
        -1.0
      ],
      "type": "VEC3"
    },
    {
      "bufferView": 1,
      "byteOffset": 4718312,
      "componentType": 5126,
      "count": 65532,
      "max": [
        0.9997121095657349,
        0.6252577900886536
      ],
      "min": [
        0.000244140625,
        0.00024463667068630457
      ],
      "type": "VEC2"
    },
    {
      "bufferView": 0,
      "byteOffset": 10379712,
      "componentType": 5125,
      "count": 285642,
      "type": "SCALAR"
    },
    {
      "bufferView": 2,
      "byteOffset": 15727704,
      "componentType": 5126,
      "count": 30375,
      "max": [
        0.8517975807189941,
        11.732259750366211,
        2.108780860900879
      ],
      "min": [
        -13.117164611816406,
        0.619715690612793,
        0.7338809967041016
      ],
      "type": "VEC3"
    },
    {
      "bufferView": 2,
      "byteOffset": 16092204,
      "componentType": 5126,
      "count": 30375,
      "max": [
        0.9986366033554077,
        0.9995614886283875,
        0.9999982714653015
      ],
      "min": [
        -0.9977220892906189,
        -0.9972278475761414,
        -0.9652901291847229
      ],
      "type": "VEC3"
    },
    {
      "bufferView": 1,
      "byteOffset": 5242568,
      "componentType": 5126,
      "count": 30375,
      "max": [
        0.999416708946228,
        0.6324091553688049
      ],
      "min": [
        0.000244140625,
        0.002214927924796939
      ],
      "type": "VEC2"
    },
    {
      "bufferView": 0,
      "byteOffset": 11522280,
      "componentType": 5125,
      "count": 119496,
      "type": "SCALAR"
    }
  ],
  "asset": {
    "extras": {
      "author": "Zhoslen.Makoev (https://sketchfab.com/Zhoslen.Makoev)",
      "license": "CC-BY-4.0 (http://creativecommons.org/licenses/by/4.0/)",
      "source": "https://sketchfab.com/3d-models/ground-28348668d86f454880166a8e6b6293dd",
      "title": "Ground"
    },
    "generator": "Sketchfab-13.78.0",
    "version": "2.0"
  },
  "bufferViews": [
    {
      "buffer": 0,
      "byteLength": 12000264,
      "name": "floatBufferViews",
      "target": 34963
    },
    {
      "buffer": 0,
      "byteLength": 5485568,
      "byteOffset": 12000264,
      "byteStride": 8,
      "name": "floatBufferViews",
      "target": 34962
    },
    {
      "buffer": 0,
      "byteLength": 16456704,
      "byteOffset": 17485832,
      "byteStride": 12,
      "name": "floatBufferViews",
      "target": 34962
    }
  ],
  "buffers": [
    {
      "byteLength": 33942536,
      "uri": "scene.bin"
    }
  ],
  "images": [
    {
      "uri": "textures/Ground_02_u1_v1_baseColor.jpeg"
    }
  ],
  "materials": [
    {
      "doubleSided": true,
      "name": "Ground_02_u1_v1",
      "pbrMetallicRoughness": {
        "baseColorTexture": {
          "index": 0
        },
        "metallicFactor": 0.0
      }
    }
  ],
  "meshes": [
    {
      "name": "Ground_02_Ground_02_u1_v1_0",
      "primitives": [
        {
          "attributes": {
            "NORMAL": 1,
            "POSITION": 0,
            "TEXCOORD_0": 2
          },
          "indices": 3,
          "material": 0,
          "mode": 4
        }
      ]
    },
    {
      "name": "Ground_02_Ground_02_u1_v1_0",
      "primitives": [
        {
          "attributes": {
            "NORMAL": 5,
            "POSITION": 4,
            "TEXCOORD_0": 6
          },
          "indices": 7,
          "material": 0,
          "mode": 4
        }
      ]
    },
    {
      "name": "Ground_02_Ground_02_u1_v1_0",
      "primitives": [
        {
          "attributes": {
            "NORMAL": 9,
            "POSITION": 8,
            "TEXCOORD_0": 10
          },
          "indices": 11,
          "material": 0,
          "mode": 4
        }
      ]
    },
    {
      "name": "Ground_02_Ground_02_u1_v1_0",
      "primitives": [
        {
          "attributes": {
            "NORMAL": 13,
            "POSITION": 12,
            "TEXCOORD_0": 14
          },
          "indices": 15,
          "material": 0,
          "mode": 4
        }
      ]
    },
    {
      "name": "Ground_02_Ground_02_u1_v1_0",
      "primitives": [
        {
          "attributes": {
            "NORMAL": 17,
            "POSITION": 16,
            "TEXCOORD_0": 18
          },
          "indices": 19,
          "material": 0,
          "mode": 4
        }
      ]
    },
    {
      "name": "Ground_02_Ground_02_u1_v1_0",
      "primitives": [
        {
          "attributes": {
            "NORMAL": 21,
            "POSITION": 20,
            "TEXCOORD_0": 22
          },
          "indices": 23,
          "material": 0,
          "mode": 4
        }
      ]
    },
    {
      "name": "Ground_02_Ground_02_u1_v1_0",
      "primitives": [
        {
          "attributes": {
            "NORMAL": 25,
            "POSITION": 24,
            "TEXCOORD_0": 26
          },
          "indices": 27,
          "material": 0,
          "mode": 4
        }
      ]
    },
    {
      "name": "Ground_02_Ground_02_u1_v1_0",
      "primitives": [
        {
          "attributes": {
            "NORMAL": 29,
            "POSITION": 28,
            "TEXCOORD_0": 30
          },
          "indices": 31,
          "material": 0,
          "mode": 4
        }
      ]
    },
    {
      "name": "Ground_02_Ground_02_u1_v1_0",
      "primitives": [
        {
          "attributes": {
            "NORMAL": 33,
            "POSITION": 32,
            "TEXCOORD_0": 34
          },
          "indices": 35,
          "material": 0,
          "mode": 4
        }
      ]
    },
    {
      "name": "Ground_02_Ground_02_u1_v1_0",
      "primitives": [
        {
          "attributes": {
            "NORMAL": 37,
            "POSITION": 36,
            "TEXCOORD_0": 38
          },
          "indices": 39,
          "material": 0,
          "mode": 4
        }
      ]
    },
    {
      "name": "Ground_02_Ground_02_u1_v1_0",
      "primitives": [
        {
          "attributes": {
            "NORMAL": 41,
            "POSITION": 40,
            "TEXCOORD_0": 42
          },
          "indices": 43,
          "material": 0,
          "mode": 4
        }
      ]
    }
  ],
  "nodes": [
    {
      "children": [
        1
      ],
      "matrix": [
        -0.8306799530982971,
        4.0690032094509117e-16,
        -0.5567502379417419,
        0.0,
        0.5567502379417419,
        1.8444800200485492e-16,
        -0.8306799530982971,
        0.0,
        -2.3531247607126347e-16,
        -1.0,
        -3.7975912214890744e-16,
        0.0,
        0.0,
        0.0,
        0.0,
        1.0
      ],
      "name": "Sketchfab_model"
    },
    {
      "children": [
        2
      ],
      "matrix": [
        1.0,
        0.0,
        0.0,
        0.0,
        0.0,
        -1.0,
        0.0,
        0.0,
        0.0,
        0.0,
        -1.0,
        0.0,
        0.0,
        0.0,
        0.0,
        1.0
      ],
      "name": "2346b985252b4a39b01107917cbba1bd.fbx"
    },
    {
      "children": [
        3
      ],
      "name": "RootNode"
    },
    {
      "children": [
        4,
        5,
        6,
        7,
        8,
        9,
        10,
        11,
        12,
        13,
        14
      ],
      "name": "Ground_02"
    },
    {
      "mesh": 0,
      "name": "Ground_02_Ground_02_u1_v1_0"
    },
    {
      "mesh": 1,
      "name": "Ground_02_Ground_02_u1_v1_0"
    },
    {
      "mesh": 2,
      "name": "Ground_02_Ground_02_u1_v1_0"
    },
    {
      "mesh": 3,
      "name": "Ground_02_Ground_02_u1_v1_0"
    },
    {
      "mesh": 4,
      "name": "Ground_02_Ground_02_u1_v1_0"
    },
    {
      "mesh": 5,
      "name": "Ground_02_Ground_02_u1_v1_0"
    },
    {
      "mesh": 6,
      "name": "Ground_02_Ground_02_u1_v1_0"
    },
    {
      "mesh": 7,
      "name": "Ground_02_Ground_02_u1_v1_0"
    },
    {
      "mesh": 8,
      "name": "Ground_02_Ground_02_u1_v1_0"
    },
    {
      "mesh": 9,
      "name": "Ground_02_Ground_02_u1_v1_0"
    },
    {
      "mesh": 10,
      "name": "Ground_02_Ground_02_u1_v1_0"
    }
  ],
  "samplers": [
    {
      "magFilter": 9729,
      "minFilter": 9987,
      "wrapS": 10497,
      "wrapT": 10497
    }
  ],
  "scene": 0,
  "scenes": [
    {
      "name": "Sketchfab_Scene",
      "nodes": [
        0
      ]
    }
  ],
  "textures": [
    {
      "sampler": 0,
      "source": 0
    }
  ]
}
